simulation
nRows=60
nColumns=15
endheader
time  TH_x TH_y TH_z SC_y  SC_z  SC_x  AC_y  AC_z  AC_x  GH_y  GH_z  GH_yy  EL_x  PS_y
0.390913  0.000000  0.000000  0.000000  -52.029477  11.115422  48.170204  45.126602  -14.489292  -22.497263  -162.842375  28.346011  173.722099  39.557477  0.000000
0.392900  0.000000  0.000000  0.000000  -51.998540  11.127044  48.373165  45.071328  -14.647435  -22.654825  -163.012642  28.507074  173.915562  39.497307  0.000000
0.394887  0.000000  0.000000  0.000000  -51.971574  11.139327  48.574629  45.018486  -14.802390  -22.807283  -163.180562  28.670541  174.108706  39.437289  0.000000
0.396971  0.000000  0.000000  0.000000  -51.947688  11.152744  48.784221  44.965523  -14.961486  -22.961819  -163.353895  28.844265  174.310833  39.374634  0.000000
0.399055  0.000000  0.000000  0.000000  -51.928417  11.166529  48.992024  44.914843  -15.117038  -23.111036  -163.524068  29.020106  174.512407  39.312407  0.000000
0.401139  0.000000  0.000000  0.000000  -51.913820  11.180521  49.197945  44.866507  -15.269088  -23.255043  -163.691156  29.197848  174.713325  39.250758  0.000000
0.403222  0.000000  0.000000  0.000000  -51.903899  11.194585  49.401855  44.820830  -15.417775  -23.393924  -163.855648  29.377273  174.913593  39.189841  0.000000
0.405306  0.000000  0.000000  0.000000  -51.898636  11.208597  49.603647  44.777982  -15.563180  -23.527827  -164.017935  29.558195  175.113267  39.129798  0.000000
0.407632  0.000000  0.000000  0.000000  -51.898251  11.224022  49.826306  44.733296  -15.721529  -23.671651  -164.196343  29.761738  175.335338  39.063977  0.000000
0.409957  0.000000  0.000000  0.000000  -51.903624  11.239063  50.046268  44.691549  -15.875620  -23.809791  -164.371421  29.966900  175.556249  38.999597  0.000000
0.412283  0.000000  0.000000  0.000000  -51.914642  11.253591  50.263476  44.652776  -16.025542  -23.942349  -164.543118  30.173560  175.775524  38.936870  0.000000
0.414233  0.000000  0.000000  0.000000  -51.928085  11.265316  50.443396  44.622895  -16.148254  -24.049231  -164.684956  30.347877  175.957924  38.885699  0.000000
0.416183  0.000000  0.000000  0.000000  -51.945221  11.276582  50.621226  44.595506  -16.268335  -24.152325  -164.825100  30.523024  176.138892  38.835936  0.000000
0.418134  0.000000  0.000000  0.000000  -51.965951  11.287345  50.796982  44.570293  -16.385723  -24.251812  -164.963224  30.698969  176.318232  38.787663  0.000000
0.420084  0.000000  0.000000  0.000000  -51.990163  11.297563  50.970692  44.546919  -16.500347  -24.347836  -165.098882  30.875706  176.495616  38.740968  0.000000
0.422034  0.000000  0.000000  0.000000  -52.017698  11.307214  51.142340  44.525380  -16.612281  -24.440443  -165.232055  31.053202  176.670734  38.695945  0.000000
0.424619  0.000000  0.000000  0.000000  -52.058963  11.319146  51.366558  44.500054  -16.756784  -24.557992  -165.405467  31.289513  176.899160  38.638991  0.000000
0.427204  0.000000  0.000000  0.000000  -52.105238  11.330119  51.586947  44.478447  -16.897082  -24.669831  -165.575749  31.526915  177.123181  38.585276  0.000000
0.429788  0.000000  0.000000  0.000000  -52.156088  11.340159  51.803533  44.460035  -17.033155  -24.776306  -165.742530  31.765382  177.342416  38.534909  0.000000
0.432373  0.000000  0.000000  0.000000  -52.211071  11.349303  52.016377  44.444212  -17.164958  -24.877691  -165.905168  32.004929  177.556267  38.487988  0.000000
0.434958  0.000000  0.000000  0.000000  -52.269664  11.357633  52.225451  44.430918  -17.292669  -24.974125  -166.063783  32.245523  177.764267  38.444611  0.000000
0.437978  0.000000  0.000000  0.000000  -52.341842  11.366513  52.464829  44.418816  -17.437083  -25.080757  -166.244939  32.527826  177.999677  38.398500  0.000000
0.440998  0.000000  0.000000  0.000000  -52.417268  11.374649  52.698946  44.409976  -17.576450  -25.181240  -166.421609  32.811397  178.226639  38.357325  0.000000
0.444018  0.000000  0.000000  0.000000  -52.495163  11.382228  52.927867  44.403690  -17.710793  -25.275945  -166.593401  33.096237  178.444753  38.321070  0.000000
0.447038  0.000000  0.000000  0.000000  -52.574714  11.389466  53.151623  44.399525  -17.840248  -25.365142  -166.760246  33.382323  178.653662  38.289698  0.000000
0.450058  0.000000  0.000000  0.000000  -52.655098  11.396605  53.370219  44.397288  -17.965052  -25.449068  -166.922490  33.669615  178.853230  38.263132  0.000000
0.453078  0.000000  0.000000  0.000000  -52.735519  11.403888  53.583635  44.396718  -18.085379  -25.527968  -167.080406  33.958017  179.043432  38.241256  0.000000
0.456099  0.000000  0.000000  0.000000  -52.815253  11.411552  53.791905  44.397412  -18.201335  -25.602101  -167.234060  34.247467  179.224292  38.223915  0.000000
0.459119  0.000000  0.000000  0.000000  -52.893637  11.419822  53.995076  44.398976  -18.313023  -25.671691  -167.383477  34.537895  179.395866  38.210928  0.000000
0.464119  0.000000  0.000000  0.000000  -53.018602  11.435479  54.320310  44.402658  -18.488911  -25.777451  -167.621979  35.020524  179.660058  38.198332  0.000000
0.469118  0.000000  0.000000  0.000000  -53.136047  11.454179  54.631853  44.407048  -18.653944  -25.871950  -167.850238  35.505008  179.900725  38.196040  0.000000
0.474118  0.000000  0.000000  0.000000  -53.244357  11.476548  54.929960  44.411327  -18.808551  -25.955801  -168.069050  35.990700  -179.880358  38.202938  0.000000
0.479118  0.000000  0.000000  0.000000  -53.342508  11.503002  55.214951  44.414897  -18.953134  -26.029521  -168.279219  36.476821  -179.681030  38.217858  0.000000
0.485650  0.000000  0.000000  0.000000  -53.454890  11.543967  55.568106  44.418066  -19.127578  -26.111233  -168.542317  37.111154  -179.446110  38.247629  0.000000
0.492182  0.000000  0.000000  0.000000  -53.549766  11.592010  55.900481  44.419468  -19.286546  -26.177275  -168.794515  37.742585  -179.234295  38.286723  0.000000
0.498714  0.000000  0.000000  0.000000  -53.629178  11.646244  56.213320  44.419624  -19.431029  -26.228645  -169.038033  38.368661  -179.039040  38.332866  0.000000
0.505246  0.000000  0.000000  0.000000  -53.696424  11.705172  56.508073  44.419515  -19.562112  -26.266452  -169.274809  38.986798  -178.854279  38.384250  0.000000
0.511778  0.000000  0.000000  0.000000  -53.755497  11.766906  56.786311  44.420370  -19.681049  -26.291965  -169.506479  39.594382  -178.674918  38.439613  0.000000
0.520949  0.000000  0.000000  0.000000  -53.832460  11.854430  57.152194  44.425443  -19.830239  -26.309954  -169.825680  40.425014  -178.425219  38.522844  0.000000
0.530121  0.000000  0.000000  0.000000  -53.911535  11.938129  57.492987  44.437400  -19.962163  -26.311326  -170.140447  41.224114  -178.171891  38.611826  0.000000
0.539292  0.000000  0.000000  0.000000  -54.000471  12.013532  57.812578  44.457833  -20.080601  -26.301094  -170.452874  41.987300  -177.912650  38.707066  0.000000
0.548464  0.000000  0.000000  0.000000  -54.103472  12.077700  58.114175  44.486933  -20.189006  -26.284079  -170.764523  42.712012  -177.649150  38.809845  0.000000
0.557635  0.000000  0.000000  0.000000  -54.220826  12.129567  58.400210  44.523588  -20.290259  -26.264477  -171.076808  43.397529  -177.385590  38.921612  0.000000
0.568475  0.000000  0.000000  0.000000  -54.373301  12.176306  58.720486  44.573478  -20.403350  -26.242343  -171.447767  44.158531  -177.081842  39.066761  0.000000
0.579315  0.000000  0.000000  0.000000  -54.532012  12.210887  59.023277  44.625962  -20.511176  -26.224615  -171.820876  44.869032  -176.795684  39.226742  0.000000
0.590154  0.000000  0.000000  0.000000  -54.685752  12.238950  59.309676  44.675999  -20.614500  -26.212458  -172.195289  45.532760  -176.535341  39.400899  0.000000
0.600994  0.000000  0.000000  0.000000  -54.824254  12.266574  59.580445  44.719380  -20.713150  -26.204903  -172.569743  46.153287  -176.305374  39.587130  0.000000
0.611834  0.000000  0.000000  0.000000  -54.940839  12.298800  59.836487  44.753711  -20.806345  -26.199550  -172.942938  46.733345  -176.105715  39.782261  0.000000
0.623769  0.000000  0.000000  0.000000  -55.042253  12.342934  60.102994  44.780991  -20.901656  -26.192688  -173.350932  47.326687  -175.915733  40.003145  0.000000
0.635704  0.000000  0.000000  0.000000  -55.119792  12.396571  60.355671  44.799510  -20.988949  -26.181592  -173.754457  47.872022  -175.748562  40.226274  0.000000
0.647639  0.000000  0.000000  0.000000  -55.182985  12.456960  60.597257  44.813260  -21.068974  -26.164557  -174.152527  48.366792  -175.594497  40.448685  0.000000
0.659574  0.000000  0.000000  0.000000  -55.243151  12.519270  60.830387  44.826500  -21.143508  -26.142172  -174.544863  48.807379  -175.445540  40.669114  0.000000
0.671509  0.000000  0.000000  0.000000  -55.309836  12.578202  61.057093  44.842451  -21.214843  -26.117118  -174.931793  49.190383  -175.297489  40.887930  0.000000
0.683850  0.000000  0.000000  0.000000  -55.391001  12.631128  61.285872  44.863233  -21.287567  -26.092518  -175.326885  49.523568  -175.145855  41.114122  0.000000
0.696191  0.000000  0.000000  0.000000  -55.484246  12.673588  61.508900  44.887711  -21.360922  -26.073513  -175.717504  49.792303  -175.000386  41.342281  0.000000
0.708532  0.000000  0.000000  0.000000  -55.583959  12.705860  61.725202  44.913471  -21.435548  -26.063404  -176.103889  49.997877  -174.868154  41.574032  0.000000
0.720874  0.000000  0.000000  0.000000  -55.681514  12.730359  61.933288  44.937279  -21.510953  -26.063792  -176.485612  50.142903  -174.756245  41.809886  0.000000
0.733215  0.000000  0.000000  0.000000  -55.768224  12.750533  62.131672  44.956217  -21.585847  -26.074353  -176.861575  50.230508  -174.669681  42.048936  0.000000
0.746635  0.000000  0.000000  0.000000  -55.843365  12.771226  62.335212  44.969416  -21.664897  -26.095132  -177.262154  50.263875  -174.605975  42.309868  0.000000
0.760056  0.000000  0.000000  0.000000  -55.896376  12.792885  62.525605  44.974883  -21.739840  -26.122472  -177.652180  50.235265  -174.571635  42.568002  0.000000
